<svg xmlns="http://www.w3.org/2000/svg" width="21" height="22" fill="none"><path fill="#78C0DE" d="M6.7 13.32a6.3 6.3 0 0 0-.44 1.16c-.04.19.04.38.2.47.09.06 2.15 1.3 3.86.6l.4-.19a11.27 11.27 0 0 1-4.02-2.04ZM6.74 7.75l.35.31a9.57 9.57 0 0 1 5.43-1.98c.43 0 .87.03 1.3.08-.22-.4-.6-.83-1.2-1.23-1.17-.78-2.69-.19-3.88.57-1.13.7-2 1.57-2.04 1.6a.43.43 0 0 0 .04.65ZM5.51 12.31c-.18-.17-.44-.42-.6-.61a1.3 1.3 0 0 1 0-1.73c.1-.13.34-.36.6-.61a7 7 0 0 1-1.58-1.72.43.43 0 0 0-.67-.07c-.64.65-1 1.43-.97 2.14.02.74.02 1.5 0 2.25-.03.71.33 1.49.97 2.13.2.2.51.17.67-.06A7.01 7.01 0 0 1 5.5 12.3Z"/><path fill="#78C0DE" d="M15.35 14.08c-1.3-1.5-1.31-4.98 0-6.49l.2-.2c-1.02-.3-2.04-.45-3.03-.45-2.21 0-4.38 1.26-6.03 2.7-.41.36-.77.71-.94.9a.43.43 0 0 0 0 .58 13.8 13.8 0 0 0 1.95 1.71c1.25.91 2.7 1.65 4.23 1.84.01 0 .28.05.82.05.98 0 2-.15 2.98-.43l-.18-.2Z"/><path fill="#78C0DE" d="M19.84 11.81c.2-.26.4-.59.41-.92.06-.73-.75-1.47-1.34-1.9a10.4 10.4 0 0 0-2.44-1.3l-.48.48c-1.02 1.2-1 4.17.01 5.34l.42.49c1.16-.44 2.66-1.21 3.42-2.19Zm-3.14-1.34a.43.43 0 1 1 .83-.25.43.43 0 0 1-.83.25Z"/></svg>