<svg xmlns="http://www.w3.org/2000/svg" width="21" height="21" fill="none"><path fill="#fff" d="M20.46 6.6a1.85 1.85 0 0 0-2.61 0L16 8.47V3.6c0-.5-.2-.96-.54-1.3L13.72.53a1.83 1.83 0 0 0-1.3-.54H1.84C.83 0 0 .83 0 1.85v17.3C0 20.18.83 21 1.85 21h12.3c1.02 0 1.85-.83 1.85-1.84v-5.47l4.46-4.47c.72-.72.72-1.89 0-2.61ZM12.3 1.24c.11 0 .34-.02.54.18l1.74 1.74c.2.2.18.41.18.54H12.3V1.23Zm2.46 17.93c0 .33-.28.61-.62.61H1.85a.62.62 0 0 1-.62-.61V1.85c0-.34.28-.62.62-.62h9.22v3.08c0 .34.28.61.62.61h3.08V9.7l-1.82 1.82-.87.87a.62.62 0 0 0-.15.24l-.87 2.61a.62.62 0 0 0 .78.78l2.61-.87c.1-.03.17-.08.24-.15l.08-.07v4.24Zm-1.38-6.34.87.87-.34.33-1.3.43.43-1.3.34-.33Zm1.74 0-.87-.88 2.95-2.96.87.87-2.95 2.97Zm4.46-4.47-.64.63-.87-.87.64-.63a.62.62 0 0 1 .87.87Z"/><path fill="#fff" d="M11.69 6.15H3.08a.62.62 0 0 0 0 1.23h8.61a.62.62 0 0 0 0-1.23ZM9.23 8.61H3.08a.62.62 0 0 0 0 1.23h6.15a.62.62 0 0 0 0-1.23ZM9.23 11.07H3.08a.62.62 0 1 0 0 1.24h6.15a.62.62 0 0 0 0-1.24ZM9.23 13.54H3.08a.62.62 0 0 0 0 1.23h6.15a.62.62 0 0 0 0-1.23ZM11.69 17.31h-3.7a.62.62 0 0 0 0 1.23h3.7a.62.62 0 0 0 0-1.23Z"/></svg>