<svg xmlns="http://www.w3.org/2000/svg" width="22" height="21" fill="none"><path fill="#fff" stroke="#fff" stroke-width=".2" d="M14.5 11.14v.08l.08.02c.73.16 1.25.76 1.25 1.47a.32.32 0 0 1-.63 0c0-.5-.46-.89-1-.89-.55 0-1.02.39-1.02.9 0 .5.47.88 1.01.88.91 0 1.64.7 1.64 1.52 0 .71-.52 1.31-1.25 1.48l-.07.02v.26a.31.31 0 1 1-.63 0v-.26l-.08-.02a1.55 1.55 0 0 1-1.25-1.48.32.32 0 0 1 .63 0c0 .5.47.9 1.01.9.55 0 1.01-.4 1.01-.9s-.46-.89-1-.89c-.92 0-1.65-.69-1.65-1.52 0-.7.53-1.3 1.25-1.47l.08-.02v-.3a.32.32 0 0 1 .63 0v.22ZM16.49 9.17a5.3 5.3 0 0 1 2.38 7.26l.09.05-.09-.05a.32.32 0 0 1-.42.13.32.32 0 0 1-.13-.43 4.67 4.67 0 0 0-2.1-6.4.31.31 0 1 1 .27-.57ZM14.82 9.28a.31.31 0 1 1 0-.63h.02a.32.32 0 0 1 0 .63h-.02ZM10.07 11.76a4.67 4.67 0 0 0 2.1 6.4l.05-.1-.04.1a.32.32 0 0 1-.28.56 5.3 5.3 0 0 1-2.38-7.26.31.31 0 1 1 .56.3ZM13.57 18.61a.32.32 0 0 1 0 .63h-.03a.31.31 0 1 1 0-.63h.03Z"/><path fill="#fff" stroke="#fff" stroke-width=".2" d="m15.99 7.18.01.05.05.01A6.97 6.97 0 0 1 14.2 20.9c-2 0-3.8-.85-5.08-2.2l-.03-.04H4.15a1.81 1.81 0 0 1-1.12-3.23l.1-.07-.1-.08a1.8 1.8 0 0 1 0-2.83l.1-.08-.1-.08a1.8 1.8 0 0 1 0-2.83l.1-.08-.1-.08a1.8 1.8 0 0 1 1.12-3.22h1.28l-.12-.16a1.8 1.8 0 0 1 0-2.05l.11-.15H1.91A1.81 1.81 0 0 1 1.9.1h10.17a1.81 1.81 0 0 1 1.49 2.83l-.1.16h3.5a1.81 1.81 0 0 1 0 3.62H15.7l.11.15c.07.1.13.21.18.32Zm-1.2-.17.04-.19a1.18 1.18 0 0 0-.51-.11H4.15a1.18 1.18 0 0 0 0 2.35h5.09l.03-.02A6.93 6.93 0 0 1 14.78 7ZM8.56 9.85l.12-.16H4.15a1.18 1.18 0 0 0 0 2.36H7.5l.02-.07c.23-.77.59-1.49 1.05-2.13ZM7.33 12.8l.02-.12h-3.2a1.18 1.18 0 0 0 0 2.36h3.17l-.01-.11a6.98 6.98 0 0 1 .02-2.13Zm.15 2.94-.02-.07H4.15a1.18 1.18 0 0 0 0 2.36h4.42l-.11-.16a6.93 6.93 0 0 1-.98-2.13ZM18.15 4.9c0-.65-.53-1.18-1.18-1.18H6.81a1.18 1.18 0 0 0 0 2.36h10.16c.65 0 1.18-.53 1.18-1.18ZM.73 1.9c0 .66.53 1.19 1.18 1.19h10.17a1.18 1.18 0 0 0 0-2.36H1.9C1.26.73.73 1.26.73 1.91Zm7.14 12.04a6.33 6.33 0 1 0 12.66 0 6.33 6.33 0 0 0-12.66 0Z"/></svg>