<svg xmlns="http://www.w3.org/2000/svg" width="28" height="27" fill="none"><path fill="#FBDD7B" d="M23.58 17.05c-2.2-3.21-4.57-6.74-10.1-5.25-2.48.66-4.12 1.93-5.03 3.89-.81 1.73-.95 3.77-1.1 5.7a3.1 3.1 0 0 0 4.44 3.03c1.77-.86 4.18-2.15 8.03-2.43 1.48-.1 1.63-.1 2.01-.2a3.1 3.1 0 0 0 1.75-4.74Z"/><path fill="#FECB3E" d="M21.83 21.79a3.1 3.1 0 0 0 1.75-4.74c-2.2-3.21-4.57-6.74-10.1-5.25l2.88 10.77c2.77-.74 4.57-.54 5.47-.78Z"/><path fill="#FFF8E0" d="m16.57 16.4-1.09.3-.29-1.09a.67.67 0 1 0-1.3.35l.29 1.08-1.09.3a.67.67 0 0 0 .35 1.3l1.09-.3.29 1.09a.67.67 0 0 0 1.3-.35L15.83 18l1.08-.3a.67.67 0 1 0-.34-1.3Z"/><path fill="#FFE799" d="M16.12 19.08 15.83 18l1.08-.3a.67.67 0 1 0-.34-1.3l-1.09.3-.29-1.09a.67.67 0 0 0-.82-.48l1.27 4.78c.36-.1.58-.47.48-.83Z"/><path fill="#FECB3E" d="M21.28 6.21A2.47 2.47 0 0 0 22.56 11a2.51 2.51 0 0 0 1.79-3.04 2.51 2.51 0 0 0-3.07-1.74ZM16.42 8.92c1.51-.4 2.33-2.28 1.82-4.17-.51-1.9-2.15-3.1-3.66-2.7-1.51.4-2.33 2.27-1.82 4.16.51 1.9 2.15 3.11 3.66 2.7Z"/><path fill="#FBDD7B" d="M9.48 10.78c1.5-.4 2.32-2.27 1.81-4.17-.5-1.9-2.14-3.1-3.65-2.7-1.51.4-2.33 2.27-1.82 4.17.5 1.9 2.15 3.1 3.66 2.7ZM3.92 10.86a2.51 2.51 0 0 0-1.79 3.04 2.51 2.51 0 0 0 3.07 1.74 2.47 2.47 0 0 0-1.28-4.78Z"/></svg>