<svg xmlns="http://www.w3.org/2000/svg" width="50" height="42" fill="none"><path fill="#DBDBDB" d="m49.6 33.4-5 6.8c-2 .8-3.93 1.2-5.8 1.2-1.07 0-2.27-.2-3.6-.6a17.5 17.5 0 0 1-3.4-2c-1.07-.93-2-2.07-2.8-3.4-.67-1.33-1-2.87-1-4.6 0-2 .2-4.07.6-6.2.4-2.13 1.13-4.47 2.2-7 1.2-2.53 2.8-5.2 4.8-8A93.2 93.2 0 0 1 43.8.4h1c.4-.13.73-.2 1-.2 2.27 0 3.53 1 3.8 3a9.7 9.7 0 0 1-1.2 2.4 21.01 21.01 0 0 1-2 3.2 58.56 58.56 0 0 1-2 3c-.53.8-.87 1.27-1 1.4a27.55 27.55 0 0 0-3 9h1c.8 0 1.6.13 2.4.4.93.13 1.8.6 2.6 1.4.8.8 1.47 1.93 2 3.4.67 1.47 1.07 3.47 1.2 6Zm-28 0-5 6.8c-2 .8-3.93 1.2-5.8 1.2-1.07 0-2.27-.2-3.6-.6a17.5 17.5 0 0 1-3.4-2c-1.07-.93-2-2.07-2.8-3.4-.67-1.33-1-2.87-1-4.6 0-2 .2-4.07.6-6.2.4-2.13 1.13-4.47 2.2-7 1.2-2.53 2.8-5.2 4.8-8A93.2 93.2 0 0 1 15.8.4h1c.4-.13.73-.2 1-.2 2.27 0 3.53 1 3.8 3a9.7 9.7 0 0 1-1.2 2.4 21.01 21.01 0 0 1-2 3.2 58.56 58.56 0 0 1-2 3c-.53.8-.87 1.27-1 1.4a27.55 27.55 0 0 0-3 9h1c.8 0 1.6.13 2.4.4.93.13 1.8.6 2.6 1.4.8.8 1.47 1.93 2 3.4.67 1.47 1.07 3.47 1.2 6Z"/></svg>