<svg xmlns="http://www.w3.org/2000/svg" width="51" height="42" fill="none"><path fill="#DBDBDB" d="m.46 8.6 5-6.8C7.46 1 9.4.6 11.26.6c1.07 0 2.27.2 3.6.6 1.2.53 2.34 1.2 3.4 2 1.07.93 2 2.07 2.8 3.4.67 1.33 1 2.87 1 4.6 0 2-.2 4.07-.6 6.2a34.75 34.75 0 0 1-2.2 7c-1.2 2.53-2.8 5.2-4.8 8a93.19 93.19 0 0 1-8.2 9.2h-1c-.4.13-.73.2-1 .2-2.26 0-3.53-1-3.8-3a9.7 9.7 0 0 1 1.2-2.4c.54-1.07 1.2-2.13 2-3.2a58.54 58.54 0 0 1 2-3c.54-.8.87-1.27 1-1.4a27.55 27.55 0 0 0 3-9h-1c-.8 0-1.6-.13-2.4-.4-.93-.13-1.8-.6-2.6-1.4a9.18 9.18 0 0 1-2-3.4C1 13.13.6 11.13.46 8.6Zm28 0 5-6.8c2-.8 3.94-1.2 5.8-1.2 1.07 0 2.27.2 3.6.6 1.2.53 2.34 1.2 3.4 2 1.07.93 2 2.07 2.8 3.4.67 1.33 1 2.87 1 4.6 0 2-.2 4.07-.6 6.2a34.75 34.75 0 0 1-2.2 7c-1.2 2.53-2.8 5.2-4.8 8a93.2 93.2 0 0 1-8.2 9.2h-1c-.4.13-.73.2-1 .2-2.26 0-3.53-1-3.8-3a9.7 9.7 0 0 1 1.2-2.4c.54-1.07 1.2-2.13 2-3.2a58.54 58.54 0 0 1 2-3c.54-.8.87-1.27 1-1.4a27.55 27.55 0 0 0 3-9h-1c-.8 0-1.6-.13-2.4-.4-.93-.13-1.8-.6-2.6-1.4a9.18 9.18 0 0 1-2-3.4c-.66-1.47-1.06-3.47-1.2-6Z"/></svg>