<svg xmlns="http://www.w3.org/2000/svg" width="14" height="15" fill="none"><path fill="#FFBD54" d="M11.67 2.25a.58.58 0 0 0-.59-.58H9.33V.5H8.17v1.17H6.42V.5H5.25v1.17H3.5V.5H2.33v1.17H.58a.58.58 0 0 0-.58.58v1.17h11.67V2.25ZM9.32 7.09a4.08 4.08 0 0 1 2.35 0V4H0v7.58c0 .33.26.59.58.59h6a4.08 4.08 0 0 1 2.74-5.08ZM8.17 5.17h1.16v1.16H8.17V5.17Zm-2.92 0h1.17v1.16H5.25V5.17ZM3.5 11H2.33V9.83H3.5V11Zm0-2.33H2.33V7.5H3.5v1.17Zm0-2.34H2.33V5.17H3.5v1.16ZM5.25 7.5h1.17v1.17H5.25V7.5Z"/><path fill="#FFBD54" d="M10.5 7.5a3.5 3.5 0 1 0 0 7 3.5 3.5 0 0 0 0-7Zm.41 3.91a.59.59 0 0 1-.6.14l-1.74-.58.36-1.1 1.41.46 1.5-1.5.82.83-1.75 1.75Z"/></svg>